<svg width="20" height="21" viewBox="0 0 20 21" fill="none" xmlns="http://www.w3.org/2000/svg">
<circle cx="10" cy="10.998" r="9.5" stroke="#FF7A7A"/>
<path d="M13.35 13.648C13.55 13.848 13.55 14.148 13.35 14.348C13.25 14.448 13.15 14.498 13 14.498C12.85 14.498 12.75 14.448 12.65 14.348L10 11.698L7.35 14.348C7.25 14.448 7.15 14.498 7 14.498C6.85 14.498 6.75 14.448 6.65 14.348C6.45 14.148 6.45 13.848 6.65 13.648L9.3 10.998L6.65 8.34805C6.45 8.14805 6.45 7.84805 6.65 7.64805C6.85 7.44805 7.15 7.44805 7.35 7.64805L10 10.298L12.65 7.64805C12.85 7.44805 13.15 7.44805 13.35 7.64805C13.55 7.84805 13.55 8.14805 13.35 8.34805L10.7 10.998L13.35 13.648Z" fill="#FF7A7A"/>
<mask id="mask0" mask-type="alpha" maskUnits="userSpaceOnUse" x="6" y="7" width="8" height="8">
<path d="M13.35 13.648C13.55 13.848 13.55 14.148 13.35 14.348C13.25 14.448 13.15 14.498 13 14.498C12.85 14.498 12.75 14.448 12.65 14.348L10 11.698L7.35 14.348C7.25 14.448 7.15 14.498 7 14.498C6.85 14.498 6.75 14.448 6.65 14.348C6.45 14.148 6.45 13.848 6.65 13.648L9.3 10.998L6.65 8.34805C6.45 8.14805 6.45 7.84805 6.65 7.64805C6.85 7.44805 7.15 7.44805 7.35 7.64805L10 10.298L12.65 7.64805C12.85 7.44805 13.15 7.44805 13.35 7.64805C13.55 7.84805 13.55 8.14805 13.35 8.34805L10.7 10.998L13.35 13.648Z" fill="white"/>
</mask>
<g mask="url(#mask0)">
<path fill-rule="evenodd" clip-rule="evenodd" d="M4 4.99805H16V16.998H4V4.99805Z" fill="#FF7A7A"/>
</g>
</svg>
